<svg xmlns="http://www.w3.org/2000/svg" width="649.471" height="149.36" viewBox="0 0 649.471 149.36">
  <g id="Group_1902" data-name="Group 1902" transform="translate(-549 -44.357)">
    <g id="b3" transform="translate(1031.528 17.395)">
      <path id="Path_9664" data-name="Path 9664" d="M361.667,165.959l26.415-16.146L374.874,130.9l-11.5-15.238a26.879,26.879,0,0,0-21.455-10.688h-3.3l-5.653,10.841,28.7,50.143" transform="translate(-224.4 -52.576)" fill="#d7d7e6"/>
      <path id="Path_9665" data-name="Path 9665" d="M341.836,171.614v20.3H354.88V170.626a18.9,18.9,0,0,0-4.426-12.153L335.6,140.783a7.175,7.175,0,0,0-10.581-.446h0a7.175,7.175,0,0,0-.269,9.835l15.576,17.474A5.966,5.966,0,0,1,341.836,171.614Z" transform="translate(-217.635 -74.982)" fill="#f0f0fa"/>
      <g id="Group_1896" data-name="Group 1896" transform="translate(3.261 52.4)">
        <path id="Path_9666" data-name="Path 9666" d="M424.722,264v55.765H397.981V279.884Z" transform="translate(-271.476 -212.149)" fill="#d7d7e6"/>
        <path id="Path_9667" data-name="Path 9667" d="M36.416,165.959,10,149.813,23.209,130.9l11.5-15.238a26.879,26.879,0,0,1,21.455-10.688h3.3l5.653,10.841-28.7,50.143" transform="translate(-10.001 -104.976)" fill="#d7d7e6"/>
      </g>
      <path id="Path_9668" data-name="Path 9668" d="M104.121,171.614v20.3H91.077V170.626A18.9,18.9,0,0,1,95.5,158.473l14.856-17.69a7.175,7.175,0,0,1,10.581-.446h0a7.175,7.175,0,0,1,.269,9.835l-15.576,17.473A5.967,5.967,0,0,0,104.121,171.614Z" transform="translate(-61.38 -74.982)" fill="#f0f0fa"/>
      <path id="Path_9669" data-name="Path 9669" d="M32,264v55.765H58.746V279.884Z" transform="translate(-21.569 -159.749)" fill="#d7d7e6"/>
      <g id="Group_1897" data-name="Group 1897" transform="translate(29.697 30.224)">
        <path id="Path_9670" data-name="Path 9670" d="M176.345,36.964h0A10.653,10.653,0,0,1,187,47.617V59.14a10.653,10.653,0,0,1-10.653,10.653h0A10.653,10.653,0,0,1,165.692,59.14V47.617A10.654,10.654,0,0,1,176.345,36.964Z" transform="translate(-141.363 -36.964)" fill="#ffcdac"/>
        <path id="Path_9671" data-name="Path 9671" d="M97.6,315.932h0a6.522,6.522,0,0,1-6.522-6.522v-6.522h13.044v6.522A6.522,6.522,0,0,1,97.6,315.932Z" transform="translate(-91.077 -216.181)" fill="#ffcdac"/>
        <path id="Path_9672" data-name="Path 9672" d="M291.614,36.964h0a10.653,10.653,0,0,0-10.653,10.653V59.14a10.653,10.653,0,0,0,10.653,10.653h0A10.653,10.653,0,0,0,302.267,59.14V47.617A10.653,10.653,0,0,0,291.614,36.964Z" transform="translate(-219.047 -36.964)" fill="#ffcdac"/>
        <path id="Path_9673" data-name="Path 9673" d="M387.437,315.932h0a6.522,6.522,0,0,0,6.522-6.522v-6.522H380.915v6.522A6.522,6.522,0,0,0,387.437,315.932Z" transform="translate(-286.41 -216.181)" fill="#ffcdac"/>
      </g>
      <g id="Group_1898" data-name="Group 1898" transform="translate(14.534 160.017)">
        <path id="Path_9674" data-name="Path 9674" d="M74.9,448.073H49.467a4.892,4.892,0,0,1-4.892-4.892v-8.153h17.28A13.044,13.044,0,0,1,74.9,448.073Z" transform="translate(-44.575 -435.029)" fill="#bebebe"/>
        <path id="Path_9675" data-name="Path 9675" d="M374.42,448.073h25.433a4.892,4.892,0,0,0,4.892-4.892v-8.153h-17.28a13.045,13.045,0,0,0-13.044,13.044Z" transform="translate(-266.871 -435.029)" fill="#bebebe"/>
      </g>
      <path id="Path_9676" data-name="Path 9676" d="M473.256,336.513a3.262,3.262,0,1,0,2.306.955A3.294,3.294,0,0,0,473.256,336.513Z" transform="translate(-316.748 -208.618)"/>
      <path id="Path_9677" data-name="Path 9677" d="M348.964,95.369,335.757,76.459l0-.006,0,0,0,0-.061-.085-11.5-15.238a30.3,30.3,0,0,0-24.058-11.985h-1.342V40.877a13.914,13.914,0,1,0-27.829,0V52.4a13.93,13.93,0,0,0,13.914,13.914c.207,0,.413-.007.618-.016a10.453,10.453,0,0,0,1.8,11.062l15.576,17.474a2.7,2.7,0,0,1,.685,1.8v26.821a9.8,9.8,0,0,0,5.565,8.825v26.953A16.35,16.35,0,0,0,301.76,169.8H276.739a3.261,3.261,0,1,0,0,6.523H339.82a3.261,3.261,0,0,0,0-6.523h-1.706a8.169,8.169,0,0,0,.164-1.631v-4.892h.838a3.261,3.261,0,0,0,3.261-3.261V142.733a3.261,3.261,0,1,0-6.523,0v14.023H315.635v-23.8a9.8,9.8,0,0,0,7.48-9.507v-8.229l12.739-7.787v10.348a3.261,3.261,0,0,0,6.523,0V104.251a3.255,3.255,0,0,0-.089-.746l5.7-3.486a3.26,3.26,0,0,0,.973-4.649Zm-17.208,67.909v4.892a1.633,1.633,0,0,1-1.631,1.631H308.513a9.8,9.8,0,0,1,9.225-6.522h14.019ZM318.981,65.052,328.449,77.6l-8.782,6.175a22.114,22.114,0,0,0-1.741-2.38L303.07,63.7a10.462,10.462,0,0,0-6.6-3.628,13.848,13.848,0,0,0,1.927-4.415h1.732A23.74,23.74,0,0,1,318.981,65.052ZM277.481,52.4V40.877a7.392,7.392,0,1,1,14.784,0V52.4a7.392,7.392,0,1,1-14.784,0Zm14.676,20.62a3.918,3.918,0,0,1,.147-5.364,3.914,3.914,0,0,1,5.772.243l14.856,17.69a15.662,15.662,0,0,1,3.663,10.056V113.67h-6.522V96.632a9.216,9.216,0,0,0-2.339-6.139Zm24.437,50.434a3.261,3.261,0,1,1-6.523,0v-3.261h6.522v3.261Zm5.752-33.591,9.937-6.987,9.349,13.387L323.117,107.58V95.645A22.149,22.149,0,0,0,322.346,89.863Z" transform="translate(-182.609)"/>
      <path id="Path_9678" data-name="Path 9678" d="M226.3,465.034a3.262,3.262,0,1,0,2.306.955A3.286,3.286,0,0,0,226.3,465.034Z" transform="translate(-150.313 -295.233)"/>
      <path id="Path_9679" data-name="Path 9679" d="M63.592,169.8h-15.8a16.348,16.348,0,0,0-7.354-10.568V132.279A9.8,9.8,0,0,0,46,123.454V96.633a2.7,2.7,0,0,1,.685-1.8L62.264,77.36a10.453,10.453,0,0,0,1.8-11.062c.205.009.411.016.618.016A13.93,13.93,0,0,0,78.593,52.4V40.877a13.914,13.914,0,0,0-27.829,0v8.261H49.423A30.294,30.294,0,0,0,25.364,61.123l-11.5,15.238c-.021.028-.041.056-.061.085l0,0,0,0,0,.006L.587,95.369a3.261,3.261,0,0,0,.973,4.65l5.7,3.486a3.254,3.254,0,0,0-.089.746v55.765a3.261,3.261,0,0,0,3.261,3.261h.838v4.892a8.169,8.169,0,0,0,.164,1.631H5.729a3.261,3.261,0,0,0,0,6.523H63.592a3.261,3.261,0,0,0,0-6.523ZM32.957,120.192H39.48v3.261a3.261,3.261,0,1,1-6.523,0v-3.261ZM57.4,73.02,41.819,90.493a9.216,9.216,0,0,0-2.339,6.139V113.67H32.958V95.644A15.662,15.662,0,0,1,36.62,85.588L51.476,67.9a3.913,3.913,0,0,1,5.772-.243A3.919,3.919,0,0,1,57.4,73.02Zm-.108-32.142a7.392,7.392,0,1,1,14.784,0V52.4a7.392,7.392,0,0,1-14.784,0V40.877ZM30.571,65.052a23.738,23.738,0,0,1,18.852-9.391h1.732a13.844,13.844,0,0,0,1.927,4.415,10.461,10.461,0,0,0-6.6,3.628L31.626,81.394a22.115,22.115,0,0,0-1.741,2.38L21.1,77.6Zm-13.3,17.823,9.937,6.987a22.134,22.134,0,0,0-.77,5.782V107.58L7.92,96.262Zm9.167,32.349v8.229a9.8,9.8,0,0,0,7.48,9.507v23.8H13.7V107.438ZM19.426,169.8A1.633,1.633,0,0,1,17.8,168.17v-4.892H31.814a9.8,9.8,0,0,1,9.225,6.522H19.426Z"/>
    </g>
    <text id="NOWE_ZNAJOMOŚCI_" data-name="NOWE ZNAJOMOŚCI!" transform="translate(774 134)" fill="#a3a3a3" font-size="40" font-family="Montserrat-SemiBold, Montserrat" font-weight="600" letter-spacing="0.009em"><tspan x="-224.07" y="0">NOWE ZNAJOMOŚCI!</tspan></text>
  </g>
</svg>
