<svg xmlns="http://www.w3.org/2000/svg" width="706.568" height="150.175" viewBox="0 0 706.568 150.175">
  <g id="Group_1903" data-name="Group 1903" transform="translate(-515 -227)">
    <g id="b2" transform="translate(1062 211.929)">
      <g id="Group_1894" data-name="Group 1894" transform="translate(3.117 18.188)">
        <path id="Path_9651" data-name="Path 9651" d="M453.4,340.023h-7.48A5.922,5.922,0,0,1,440,334.1v-7.584a5.922,5.922,0,0,1,5.922-5.921h7.48a5.922,5.922,0,0,1,5.922,5.921V334.1A5.922,5.922,0,0,1,453.4,340.023Z" transform="translate(-305.987 -228.493)" fill="#ffcdac"/>
        <path id="Path_9652" data-name="Path 9652" d="M23.4,340.023h-7.48A5.922,5.922,0,0,1,10,334.1v-7.584a5.922,5.922,0,0,1,5.921-5.921H23.4a5.922,5.922,0,0,1,5.921,5.921V334.1A5.922,5.922,0,0,1,23.4,340.023Z" transform="translate(-10 -228.493)" fill="#ffcdac"/>
        <path id="Path_9653" data-name="Path 9653" d="M222.96,64.224h0A14.959,14.959,0,0,1,208,49.264V40.031a14.959,14.959,0,0,1,14.96-14.96h0a14.959,14.959,0,0,1,14.96,14.96v9.234A14.959,14.959,0,0,1,222.96,64.224Z" transform="translate(-146.292 -25.071)" fill="#ffcdac"/>
      </g>
      <path id="Path_9654" data-name="Path 9654" d="M164.251,229.859H186.69v-19.79h0a39.364,39.364,0,0,1-20.178-30.475l-.574-5.6a14.959,14.959,0,0,0-14.881-13.435H107.633a14.959,14.959,0,0,0-14.881,13.435l-.574,5.6A39.364,39.364,0,0,1,72,210.069h0v19.79h92.251Z" transform="translate(-49.561 -100.142)" fill="#f0f0fa"/>
      <path id="Path_9655" data-name="Path 9655" d="M234.077,170.463,225.389,150.7h18.4Z" transform="translate(-155.145 -93.359)" fill="#bebebe"/>
      <rect id="Rectangle_1378" data-name="Rectangle 1378" width="49.485" height="13.224" transform="translate(55.042 116.493)" fill="#878791"/>
      <path id="Path_9656" data-name="Path 9656" d="M279.027,382.929h45.017a16.206,16.206,0,0,1,16.206,16.206h0a16.206,16.206,0,0,1-16.206,16.206H279.027Z" transform="translate(-192.066 -253.212)" fill="#d7d7e6"/>
      <path id="Path_9657" data-name="Path 9657" d="M299.889,425.889H279.943v-14.96h19.946a7.48,7.48,0,0,1,7.48,7.48h0A7.48,7.48,0,0,1,299.889,425.889Z" transform="translate(-192.697 -272.486)" fill="#bebebe"/>
      <path id="Path_9658" data-name="Path 9658" d="M112.1,415.341H52.734a16.206,16.206,0,0,1-16.206-16.206h0a16.206,16.206,0,0,1,16.206-16.206H112.1v32.412Z" transform="translate(-25.144 -253.212)" fill="#d7d7e6"/>
      <g id="Group_1895" data-name="Group 1895" transform="translate(57.449 60.412)">
        <path id="Path_9659" data-name="Path 9659" d="M184.333,160.554l30.933,56.832h12.4l-30.933-56.832Z" transform="translate(-184.333 -160.554)" fill="#878791"/>
        <path id="Path_9660" data-name="Path 9660" d="M275.2,160.554,260.032,189.68l-6.767-12.433,9.539-16.692Z" transform="translate(-231.782 -160.554)" fill="#878791"/>
      </g>
      <path id="Path_9661" data-name="Path 9661" d="M150.531,107.173h-7.48a8.988,8.988,0,0,0-3.558.731,3.105,3.105,0,0,0-.861-.708,36.252,36.252,0,0,1-18.58-28.063l-.574-5.6A18.026,18.026,0,0,0,101.5,57.3H89.983A18.069,18.069,0,0,0,97.86,42.381V33.147a18.076,18.076,0,1,0-36.152,0v9.234A18.068,18.068,0,0,0,69.586,57.3H57.449A3.132,3.132,0,0,0,57,57.33a18.02,18.02,0,0,0-16.911,16.2l-.574,5.6A36.251,36.251,0,0,1,20.937,107.2a3.106,3.106,0,0,0-.861.708,8.987,8.987,0,0,0-3.558-.731H9.038A9.048,9.048,0,0,0,0,116.211v7.584a9.048,9.048,0,0,0,9.038,9.038h4.355a19.31,19.31,0,0,0,14.2,32.412H39.373a3.117,3.117,0,1,0,0-6.233H27.59a13.09,13.09,0,0,1,0-26.179H83.844v26.179H65.122a3.117,3.117,0,1,0,0,6.233h66.856a19.31,19.31,0,0,0,14.2-32.412h4.355a9.048,9.048,0,0,0,9.038-9.038v-7.584A9.049,9.049,0,0,0,150.531,107.173ZM113.277,74.164l.574,5.6a42.49,42.49,0,0,0,20.162,31.953V126.6H107.644v-9.193L110,94.823a3.117,3.117,0,1,0-6.2-.646l-1.933,18.544L89.231,89.505l13.5-25.912A11.805,11.805,0,0,1,113.277,74.164ZM95.731,63.528,85.639,82.907,82.5,77.141l7.779-13.613ZM67.941,33.147a11.843,11.843,0,1,1,23.686,0v9.234a11.843,11.843,0,1,1-23.686,0Zm11.843,27.31a18,18,0,0,0,5.576-.884L79,70.707,72.609,58.968A17.971,17.971,0,0,0,79.784,60.457ZM6.233,123.8v-7.584a2.808,2.808,0,0,1,2.8-2.8h7.48a2.808,2.808,0,0,1,2.8,2.8V123.8a2.808,2.808,0,0,1-2.8,2.8H9.038A2.808,2.808,0,0,1,6.233,123.8Zm19.323,2.8V111.722A42.488,42.488,0,0,0,45.718,79.769l.574-5.6a11.805,11.805,0,0,1,9.432-10.4l7.622,14a3.117,3.117,0,0,0,5.475-2.98L62.693,63.528h5.3l27.541,50.6h-5.3L80.857,96.9a3.117,3.117,0,0,0-5.475,2.98l7.755,14.248H57.85L55.77,94.176a3.117,3.117,0,1,0-6.2.646l2.354,22.584V126.6H25.556Zm32.6,0v-6.239h43.253V126.6Zm73.821,32.412h-41.9v-2.493h17.115a10.6,10.6,0,1,0,0-21.193H90.077v-2.493h41.9a13.09,13.09,0,0,1,0,26.179Zm-41.615-8.726V141.56h16.83a4.363,4.363,0,0,1,0,8.726ZM153.335,123.8a2.808,2.808,0,0,1-2.8,2.8h-7.48a2.808,2.808,0,0,1-2.8-2.8v-7.584a2.808,2.808,0,0,1,2.8-2.8h7.48a2.808,2.808,0,0,1,2.8,2.8Z"/>
      <path id="Path_9662" data-name="Path 9662" d="M221.651,241.4a3.117,3.117,0,0,0,5.473-2.983l-.056-.1a3.117,3.117,0,0,0-5.473,2.984Z" transform="translate(-152.271 -152.55)"/>
      <path id="Path_9663" data-name="Path 9663" d="M162.117,476.929a3.118,3.118,0,1,0,2.2.913A3.134,3.134,0,0,0,162.117,476.929Z" transform="translate(-109.446 -317.917)"/>
    </g>
    <text id="DOBRE_SAMOPOCZUCIE_I_LEPSZE_ZDROWIE_" data-name="DOBRE SAMOPOCZUCIE
 I LEPSZE ZDROWIE!" transform="translate(774 292)" fill="#a3a3a3" font-size="40" font-family="Montserrat-SemiBold, Montserrat" font-weight="600" letter-spacing="0.009em"><tspan x="-258.11" y="0">DOBRE SAMOPOCZUCIE</tspan><tspan x="-214.03" y="49" xml:space="preserve"> I LEPSZE ZDROWIE!</tspan></text>
  </g>
</svg>
