<svg xmlns="http://www.w3.org/2000/svg" width="784" height="150.175" viewBox="0 0 784 150.175">
  <g id="Group_1904" data-name="Group 1904" transform="translate(-286 -406)">
    <g id="b1" transform="translate(286 405.833)">
      <path id="Path_9640" data-name="Path 9640" d="M214.438,10.167V30.321l7.75,8.968a9.739,9.739,0,0,1-.512,13.285l-4.89,4.848v0l-4.132,5.51a5.792,5.792,0,0,1-4.633,2.317h-16.5a5.519,5.519,0,0,1-4.992-3.166l-6.136-13.022a5.518,5.518,0,0,1,.117-4.938l5.555-10.474V10.167Z" transform="translate(-127.077 -7.065)" fill="#ffcdac"/>
      <rect id="Rectangle_1375" data-name="Rectangle 1375" width="93.92" height="11.74" transform="translate(26.712 81.661)" fill="#f5b955"/>
      <rect id="Rectangle_1376" data-name="Rectangle 1376" width="93.92" height="11.74" transform="translate(26.712 69.921)" fill="#f5c86e"/>
      <rect id="Rectangle_1377" data-name="Rectangle 1377" width="93.92" height="11.74" transform="translate(26.712 58.181)" fill="#f5b955"/>
      <g id="Group_1893" data-name="Group 1893" transform="translate(2.935 93.402)">
        <path id="Path_9641" data-name="Path 9641" d="M43.7,317.833H16.213A6.213,6.213,0,0,0,10,324.046v41.579a6.213,6.213,0,0,0,6.213,6.213H43.7a6.213,6.213,0,0,0,6.213-6.213V324.046A6.213,6.213,0,0,0,43.7,317.833Z" transform="translate(-10 -317.833)" fill="#878791"/>
        <path id="Path_9642" data-name="Path 9642" d="M399.7,317.833H372.212A6.213,6.213,0,0,0,366,324.046v41.579a6.213,6.213,0,0,0,6.213,6.213H399.7a6.213,6.213,0,0,0,6.213-6.213V324.046A6.213,6.213,0,0,0,399.7,317.833Z" transform="translate(-261.514 -317.833)" fill="#878791"/>
      </g>
      <path id="Path_9643" data-name="Path 9643" d="M44.935,450.38a2.937,2.937,0,1,0,2.075.86A2.957,2.957,0,0,0,44.935,450.38Z" transform="translate(-29.673 -318.075)"/>
      <path id="Path_9644" data-name="Path 9644" d="M44.935,357.333A2.935,2.935,0,0,0,42,360.268v16.7a2.935,2.935,0,0,0,5.87,0v-16.7A2.935,2.935,0,0,0,44.935,357.333Z" transform="translate(-29.673 -252.337)"/>
      <path id="Path_9645" data-name="Path 9645" d="M141.125,90.467H123.567V58.182a2.935,2.935,0,0,0-2.935-2.935H89.709l2.219-2.959,4.737-4.7A12.712,12.712,0,0,0,97.331,30.3L90.3,22.163V3.1a2.935,2.935,0,1,0-5.87,0V23.256a2.936,2.936,0,0,0,.714,1.919l7.75,8.968a6.821,6.821,0,0,1-.246,9.159V41.257a2.935,2.935,0,1,0-5.87,0v8.12L83.229,54.1a2.872,2.872,0,0,1-2.286,1.143h-16.5a2.6,2.6,0,0,1-2.337-1.482L55.973,40.744a2.6,2.6,0,0,1,.055-2.312l5.555-10.474a2.936,2.936,0,0,0,.342-1.375V3.1a2.935,2.935,0,0,0-5.87,0v22.75l-5.212,9.829a8.494,8.494,0,0,0-.179,7.564l5.655,12H26.712a2.935,2.935,0,0,0-2.935,2.935V90.468H9.148A9.157,9.157,0,0,0,0,99.615v41.579a9.158,9.158,0,0,0,9.148,9.148H36.639a9.158,9.158,0,0,0,9.148-9.148V99.615a9.1,9.1,0,0,0-.61-3.278H71.25a2.935,2.935,0,1,0,0-5.87h-41.6V84.6H117.7v5.87H95a2.935,2.935,0,1,0,0,5.87h10.1a9.1,9.1,0,0,0-.61,3.278v41.579a9.158,9.158,0,0,0,9.148,9.148h27.491a9.158,9.158,0,0,0,9.148-9.148V99.615A9.158,9.158,0,0,0,141.125,90.467ZM36.639,96.337a3.281,3.281,0,0,1,3.278,3.278v41.579a3.281,3.281,0,0,1-3.278,3.278H9.148a3.281,3.281,0,0,1-3.278-3.278V99.615a3.281,3.281,0,0,1,3.278-3.278Zm-6.992-35.22H117.7v5.87H29.647v-5.87Zm0,17.61v-5.87H117.7v5.87ZM144.4,141.194a3.281,3.281,0,0,1-3.278,3.278H113.634a3.281,3.281,0,0,1-3.278-3.278V99.615a3.281,3.281,0,0,1,3.278-3.278h27.491a3.281,3.281,0,0,1,3.278,3.278Z"/>
      <path id="Path_9646" data-name="Path 9646" d="M275.265,307.829a2.937,2.937,0,1,0,2.075.86A2.957,2.957,0,0,0,275.265,307.829Z" transform="translate(-192.401 -217.363)"/>
      <path id="Path_9647" data-name="Path 9647" d="M376.919,36a2.935,2.935,0,0,0,2.935-2.935V17.4a2.935,2.935,0,1,0-5.87,0V33.062A2.935,2.935,0,0,0,376.919,36Z" transform="translate(-264.219 -10.099)"/>
      <path id="Path_9648" data-name="Path 9648" d="M376.919,135.878a2.935,2.935,0,0,0,2.935-2.935v-6.989a2.935,2.935,0,1,0-5.87,0v6.989A2.935,2.935,0,0,0,376.919,135.878Z" transform="translate(-264.219 -86.795)"/>
      <path id="Path_9649" data-name="Path 9649" d="M127.935,88.128a2.935,2.935,0,0,0,2.935-2.935V66.373a2.935,2.935,0,1,0-5.87,0v18.82A2.935,2.935,0,0,0,127.935,88.128Z" transform="translate(-88.312 -44.701)"/>
      <path id="Path_9650" data-name="Path 9650" d="M83.946,18.714a2.935,2.935,0,0,0,2.935-2.935V4.021a2.935,2.935,0,0,0-5.87,0V15.779A2.935,2.935,0,0,0,83.946,18.714Z" transform="translate(-57.234 -0.649)"/>
    </g>
    <text id="WIĘKSZA_PEWNOŚĆ_SIEBIE_" data-name="WIĘKSZA PEWNOŚĆ SIEBIE!" transform="translate(774 496)" fill="#a3a3a3" font-size="40" font-family="Montserrat-SemiBold, Montserrat" font-weight="600" letter-spacing="0.009em"><tspan x="-295.86" y="0">WIĘKSZA PEWNOŚĆ SIEBIE!</tspan></text>
  </g>
</svg>
