<svg xmlns="http://www.w3.org/2000/svg" width="971.813" height="166.217" viewBox="0 0 971.813 166.217">
  <g id="Group_1905" data-name="Group 1905" transform="translate(-274 -615.783)">
    <g id="b5" transform="translate(1066.188 596.672)">
      <path id="Path_9687" data-name="Path 9687" d="M374.207,138.328l8.531-23.167L401.1,133.519Z" transform="translate(-242.924 -62.353)" fill="#bebebe"/>
      <g id="Group_1899" data-name="Group 1899" transform="translate(74.354 40.538)">
        <path id="Path_9688" data-name="Path 9688" d="M360.173,207.892,379.7,188.523a17.16,17.16,0,0,0,.049-24.317h0l-25.008,4.766L343.39,194.1Z" transform="translate(-297.273 -134.729)" fill="#f0f0fa"/>
        <path id="Path_9689" data-name="Path 9689" d="M257.269,141.294l21.153-46.819-3.885-3.885A13.982,13.982,0,0,0,260.251,87.2l-14.99,4.968a6.967,6.967,0,0,1-7.118-1.687l-10.3-10.3L211.938,96.091l16.989,16.989Z" transform="translate(-211.938 -80.186)" fill="#f0f0fa"/>
      </g>
      <rect id="Rectangle_1379" data-name="Rectangle 1379" width="11.059" height="14.516" transform="translate(79.551 35.535) rotate(45)" fill="#ffb487"/>
      <g id="Group_1900" data-name="Group 1900" transform="translate(56.377 22.627)">
        <path id="Path_9690" data-name="Path 9690" d="M177.887,31.094l3.734,3.734a6.691,6.691,0,0,1,0,9.463l-5.77,5.77a6.691,6.691,0,0,1-9.463,0l-3.734-3.734a6.691,6.691,0,0,1,0-9.463l5.77-5.77A6.691,6.691,0,0,1,177.887,31.094Z" transform="translate(-160.695 -29.134)" fill="#ffcdac"/>
        <path id="Path_9691" data-name="Path 9691" d="M340.335,244.8l3.023-3.022a6.691,6.691,0,0,1,9.463,0l4.949,4.949a6.691,6.691,0,0,1,0,9.463l-3.022,3.022a6.691,6.691,0,0,1-9.463,0l-4.949-4.949A6.691,6.691,0,0,1,340.335,244.8Z" transform="translate(-276.04 -165.906)" fill="#ffcdac"/>
      </g>
      <path id="Path_9692" data-name="Path 9692" d="M249.03,219.908v52.97h17.883l14.435-65.021-25.264-25.136Z" transform="translate(-161.663 -106.211)" fill="#d7d7e6"/>
      <path id="Path_9693" data-name="Path 9693" d="M412.515,94.388h0a15.5,15.5,0,0,1,0-21.913l1.992-1.992a15.5,15.5,0,0,1,21.913,0h0a15.5,15.5,0,0,1,0,21.913l-1.992,1.992A15.5,15.5,0,0,1,412.515,94.388Z" transform="translate(-264.846 -30.404)" fill="#ffcdac"/>
      <g id="Group_1901" data-name="Group 1901" transform="translate(3.523 30.787)">
        <path id="Path_9694" data-name="Path 9694" d="M284.223,454.84h-29.91a5.283,5.283,0,0,1-5.282-5.282V439.7h21.107a14.086,14.086,0,0,1,14.086,14.086Z" transform="translate(-165.185 -303.821)" fill="#bebebe"/>
        <path id="Path_9695" data-name="Path 9695" d="M12.147,54.5h0a7.192,7.192,0,0,1,8.892-1.016L37.072,63.49,26.633,73.928,13.425,65.684A7.191,7.191,0,0,1,12.147,54.5Z" transform="translate(-10.04 -52.392)" fill="#bebebe"/>
      </g>
      <path id="Path_9696" data-name="Path 9696" d="M108.425,131.993,55.471,94.641l11.35-11.35,63.61,34.883Z" transform="translate(-36.01 -41.664)" fill="#d7d7e6"/>
      <path id="Path_9697" data-name="Path 9697" d="M193.311,199.426,228.5,234.433l16.68-26.576-25.264-25.136Z" transform="translate(-125.492 -106.211)" fill="#f0f0fa"/>
      <path id="Path_9698" data-name="Path 9698" d="M174.064,37.59a19.038,19.038,0,0,0-26.894,0l-1.992,1.992a18.9,18.9,0,0,0-5.138,9.468l-.6-.6a17.411,17.411,0,0,0-17.884-4.238l-14.99,4.967a3.428,3.428,0,0,1-3.52-.834l-10.3-10.3a3.522,3.522,0,0,0-4.981,0l-.364.364-4.654-4.654a10.188,10.188,0,0,0-2.959-7.928L76.059,22.1a10.224,10.224,0,0,0-14.443,0l-5.77,5.77a10.224,10.224,0,0,0,0,14.443l3.734,3.734A10.183,10.183,0,0,0,66.8,49.03c.236,0,.472-.011.707-.027l4.654,4.654-.3.3a3.522,3.522,0,0,0,0,4.981L74.5,61.571l-42-23.032a3.511,3.511,0,0,0-1.32-.413l-14.8-9.236A10.713,10.713,0,1,0,5.042,47.066l11.04,6.891a3.516,3.516,0,0,0,1.34,1.891L31.1,65.562a3.521,3.521,0,1,0,4.079-5.742L24.9,52.52l6.535-6.535,56.038,30.73-14.97,9.4L54.29,73.607A3.522,3.522,0,0,0,50.3,79.413L66,90.2l-.056.035a3.522,3.522,0,0,0-.611,5.479l18.51,18.416v62.4a8.814,8.814,0,0,0,8.8,8.8h29.911a3.522,3.522,0,0,0,3.522-3.522v-1.052a17.628,17.628,0,0,0-16.452-17.566l10.585-47.677,2.916,2.916a10.225,10.225,0,0,0,14.443,0L140.6,115.4c.2-.2.39-.41.573-.625l18.093-17.947a20.7,20.7,0,0,0,3.252-25.2,18.9,18.9,0,0,0,9.559-5.158l1.992-1.992A19.039,19.039,0,0,0,174.064,37.59ZM79.549,40.517l2.84,2.839-5.284,5.283-2.84-2.84ZM60.827,37.329a3.173,3.173,0,0,1,0-4.482l5.77-5.77a3.173,3.173,0,0,1,4.482,0l3.734,3.734a3.173,3.173,0,0,1,0,4.482l-5.77,5.77a3.173,3.173,0,0,1-4.482,0Zm80.821,24.258a18.907,18.907,0,0,0,5.592,6.67l-9.416,1.795ZM98.069,53.328a10.433,10.433,0,0,0,10.716,2.539l14.99-4.968a10.406,10.406,0,0,1,10.687,2.533l2.164,2.163L118.567,95.566l-20.206-20.1,14.274-3.211a3.522,3.522,0,1,0-1.545-6.872L92.462,69.57,79.335,56.443,90.26,45.518Zm-91-14.933a3.665,3.665,0,0,1,5.588-3.529l12.274,7.661L19.6,47.852,8.771,41.091A3.651,3.651,0,0,1,7.068,38.394ZM93.922,80.981l21.284,21.176-5.748,9.158-8.5-8.5a3.522,3.522,0,0,0-4.981,4.981l9.642,9.642-3.252,5.182L73.442,93.843Zm6.6,49.737a3.521,3.521,0,0,0,5.467-.624l5.84-9.3-9.4,42.355H90.889V121.135Zm18.226,47.565H92.65a1.763,1.763,0,0,1-1.761-1.761v-6.335h17.585A10.583,10.583,0,0,1,118.747,178.284Zm9.364-64.838-4.949-4.949a3.151,3.151,0,0,1-.921-2.116l.354-1.595a3.163,3.163,0,0,1,.567-.771h0l3.022-3.022a3.157,3.157,0,0,1,3.28-.749,3.5,3.5,0,0,0,1.138.691c.021.02.043.037.064.058l4.949,4.949a3.162,3.162,0,0,1,.307,4.121l-1.148,1.138a3.524,3.524,0,0,0-.358.422l-1.824,1.824A3.172,3.172,0,0,1,128.111,113.446ZM154.3,91.832l-11.82,11.724a10.237,10.237,0,0,0-1.885-2.6l-3.56-3.56,5.611-5.611a3.522,3.522,0,1,0-4.981-4.981L131.1,93.381a10.292,10.292,0,0,0-3.674-.306L134.279,77.9l21.239-4.048A13.636,13.636,0,0,1,154.3,91.832ZM169.084,59.5l-1.992,1.992a11.973,11.973,0,0,1-16.933-16.933l1.992-1.992A11.973,11.973,0,1,1,169.084,59.5Z" transform="translate(0 0)"/>
      <path id="Path_9699" data-name="Path 9699" d="M118.507,158.915a3.52,3.52,0,1,0-2.49,1.032A3.536,3.536,0,0,0,118.507,158.915Z" transform="translate(-73.029 -86.855)"/>
      <path id="Path_9700" data-name="Path 9700" d="M246.289,226.893a3.523,3.523,0,1,0,2.49,1.032A3.542,3.542,0,0,0,246.289,226.893Z" transform="translate(-157.597 -134.886)"/>
      <path id="Path_9701" data-name="Path 9701" d="M79.741,184.125,50.984,163.839a3.522,3.522,0,0,0-4.06,5.755L75.681,189.88a3.522,3.522,0,0,0,4.06-5.755Z" transform="translate(-29.493 -93.535)"/>
    </g>
    <text id="LEPSZA_KOORDYNACJA_ZWINNOŚCI_ORAZ_KOMUNIKACJA_Z_OTOCZENIEM_" data-name="LEPSZA KOORDYNACJA, ZWINNOŚCI 
ORAZ KOMUNIKACJA Z OTOCZENIEM!" transform="translate(674 689)" fill="#a3a3a3" font-size="40" font-family="Montserrat-SemiBold, Montserrat" font-weight="600" letter-spacing="0.009em"><tspan x="-395.35" y="0">LEPSZA KOORDYNACJA, ZWINNOŚCI </tspan><tspan x="-399.09" y="49">ORAZ KOMUNIKACJA Z OTOCZENIEM!</tspan></text>
  </g>
</svg>
