<svg xmlns="http://www.w3.org/2000/svg" width="522.504" height="158" viewBox="0 0 522.504 158">
  <g id="Group_1906" data-name="Group 1906" transform="translate(-286.496 -848)">
    <g id="b4" transform="translate(214.896 848)">
      <circle id="Ellipse_28" data-name="Ellipse 28" cx="44.891" cy="44.891" r="44.891" transform="translate(83.641 65.132)" fill="#f5c86e"/>
      <path id="Path_9680" data-name="Path 9680" d="M216.56,308.429l-5.666-15.391-.01.012a11.366,11.366,0,0,0-4.495-8.749l-4.615-3.5a11.369,11.369,0,0,0-6.866-2.307h-26.08a12.611,12.611,0,0,0-10.09,5.046l-.605.807a12.611,12.611,0,0,0-2.522,7.566v18.427a6.507,6.507,0,0,0,6.507,6.507h1.771a5.543,5.543,0,0,0,5.543-5.543v.519a5.543,5.543,0,0,0,5.542,5.543h2.735a5.543,5.543,0,0,0,5.543-5.543,5.543,5.543,0,0,0,5.542,5.543h1.368v2.783a5.711,5.711,0,0,0,5.711,5.711h11.653a8.991,8.991,0,0,0,8.741-6.887l.731-3.04A12.958,12.958,0,0,0,216.56,308.429Z" transform="translate(-58.086 -192.555)" fill="#e6aa46"/>
      <path id="Path_9681" data-name="Path 9681" d="M106.988,79.774,81.6,10.021,107.236,10l22.369,61.542Z" transform="translate(-6.914 -6.914)" fill="#dc4b4b"/>
      <path id="Path_9682" data-name="Path 9682" d="M297.455,79.774l25.388-69.753L297.207,10,274.838,71.542Z" transform="translate(-140.52 -6.914)" fill="#ff5a5a"/>
      <path id="Path_9683" data-name="Path 9683" d="M394.645,345.736h-.012a3.086,3.086,0,0,0-3.074,3.1v.222a3.086,3.086,0,0,0,6.172,0v-.246A3.086,3.086,0,0,0,394.645,345.736Z" transform="translate(-221.222 -239.044)"/>
      <path id="Path_9684" data-name="Path 9684" d="M120.328,124.752a3.084,3.084,0,1,0-2.182.9A3.1,3.1,0,0,0,120.328,124.752Z" transform="translate(-30.049 -82.61)"/>
      <path id="Path_9685" data-name="Path 9685" d="M184.852,1.338A3.087,3.087,0,0,0,182.325.021L156.689,0h0a3.086,3.086,0,0,0-2.9,2.032L131.929,62.167q-1.688-.117-3.4-.119h-.013c-1.156,0-2.3.044-3.438.125L103.222,2.032A3.086,3.086,0,0,0,100.322,0h0L74.683.021a3.086,3.086,0,0,0-2.9,4.141L81.225,30.1a3.086,3.086,0,1,0,5.8-2.111l-7.933-21.8,19.07-.015,20.667,56.86a47.7,47.7,0,0,0-16.552,6.856l-7.3-20.06a3.086,3.086,0,1,0-5.8,2.111l7.95,21.843A47.957,47.957,0,0,0,128.532,158h.013a47.548,47.548,0,0,0,29.037-9.791,48.33,48.33,0,0,0,17.019-24.75,3.086,3.086,0,0,0-5.926-1.726,42.012,42.012,0,0,1-40.132,30.094h-.011a41.8,41.8,0,0,1-.01-83.609h.011a42.07,42.07,0,0,1,40.047,29.767,3.086,3.086,0,1,0,5.911-1.774A48.362,48.362,0,0,0,159.9,73.728l25.32-69.566A3.085,3.085,0,0,0,184.852,1.338Zm-30.1,68.5a47.359,47.359,0,0,0-16.562-6.827L158.848,6.174l19.07.015Z"/>
      <path id="Path_9686" data-name="Path 9686" d="M201.338,274.928l-4.615-3.5a14.541,14.541,0,0,0-8.729-2.933h-26.08a15.772,15.772,0,0,0-12.558,6.28l-.606.808A15.8,15.8,0,0,0,145.611,285V303.43a9.6,9.6,0,0,0,9.593,9.593h1.771a8.582,8.582,0,0,0,5.234-1.775,8.6,8.6,0,0,0,5.851,2.294h2.735a8.587,8.587,0,0,0,5.543-2.023,8.6,8.6,0,0,0,3.827,1.851,8.806,8.806,0,0,0,8.793,8.666h11.653a12.04,12.04,0,0,0,11.741-9.251l.731-3.04a15.992,15.992,0,0,0-.543-9.3l-5.514-14.978A14.537,14.537,0,0,0,201.338,274.928Zm-21.914,29.986V290.031a3.086,3.086,0,0,0-6.172,0v14.882a2.459,2.459,0,0,1-2.457,2.457H168.06a2.459,2.459,0,0,1-2.457-2.457v-15.4a3.086,3.086,0,0,0-6.172,0v14.882a2.459,2.459,0,0,1-2.457,2.456H155.2a3.425,3.425,0,0,1-3.421-3.421V285a9.584,9.584,0,0,1,1.9-5.714l.606-.808a9.57,9.57,0,0,1,7.62-3.811h26.08a8.334,8.334,0,0,1,5,1.681l4.615,3.5a8.329,8.329,0,0,1,3.282,6.6v17.167a3.756,3.756,0,0,1-3.752,3.752H195.7a2.459,2.459,0,0,1-2.457-2.457V290.031a3.086,3.086,0,0,0-6.172,0v14.882a2.459,2.459,0,0,1-2.457,2.457h-2.735A2.459,2.459,0,0,1,179.424,304.913Zm27.66,3.388-.731,3.04a5.887,5.887,0,0,1-5.74,4.523H188.959a2.626,2.626,0,0,1-2.618-2.5,8.6,8.6,0,0,0,3.818-1.849,8.588,8.588,0,0,0,5.543,2.023h1.44a9.935,9.935,0,0,0,9.924-9.913A9.821,9.821,0,0,1,207.083,308.3Z" transform="translate(-51.172 -185.641)"/>
    </g>
    <text id="DOBRA_ZABAWA_" data-name="DOBRA ZABAWA!" transform="translate(622 942)" fill="#a3a3a3" font-size="40" font-family="Montserrat-SemiBold, Montserrat" font-weight="600" letter-spacing="0.009em"><tspan x="-186.36" y="0">DOBRA ZABAWA!</tspan></text>
  </g>
</svg>
