<svg xmlns="http://www.w3.org/2000/svg" width="348.062" height="298.737" viewBox="0 0 348.062 298.737">
  <g id="logo" transform="translate(-1309.349 -47.907)">
    <path id="Path_9513" data-name="Path 9513" d="M12.075-174.285c0,1.029-1.886,2.744-4.287,3.773-5.83,2.572-5.487,4.287,2.229,10.975l6.345,5.487-8.231,8.574-8.231,8.4,13.376,12.861c14.919,14.576,27.609,25.38,29.667,25.38.686,0,3.773,5.659,6.859,12.347A168.721,168.721,0,0,0,60.091-66.25c7.2,11.489,9.775,38.412,6.859,71.337-1.2,13.376-1.715,25.208-1.029,26.066.514,1.029,4.973,2.229,9.775,2.915l8.746,1.2-1.029,6.516c-.686,4.287-.343,7.031,1.2,8.06,1.029,1.029,9.946,1.886,19.721,2.058,16.119.171,17.663,0,17.148-2.744-.343-1.886-2.4-3.258-5.487-3.6-2.744-.343-7.888-2.4-11.318-4.63l-6.345-3.944.686-12.861A154.255,154.255,0,0,0,97.989-1.087c-1.2-8.746-1.029-13.547.171-16.462,1.372-3.087,1.372-5.145-.171-8.06s-1.543-5.145-.343-8.746a30.747,30.747,0,0,0,1.886-9.432c0-4.287.857-5.145,7.545-6.859,11.489-2.915,13.033-2.572,13.033,2.915,0,3.944,1.029,5.145,6,7.031,5.83,2.058,6.516,1.886,13.89-3.6,18.52-13.547,19.378-14.4,18.349-22.464a37.787,37.787,0,0,0-3.6-11.489c-4.287-6.516-3.944-14.919.343-16.119,8.574-2.058,12.69-19.378,6.173-26.237-3.6-4.116-12-6.516-16.805-4.973-4.116,1.372-9.432,13.033-9.6,20.921-.171,3.087-.514,5.83-.857,5.83-.514,0-2.572-1.715-4.8-3.773-5.145-4.8-25.723-6.688-32.582-2.915-3.773,2.058-21.264-1.886-24.522-3.6-2.058-1.029-4.8-4.459-6-7.374-3.258-7.545-37.726-43.728-42.356-44.414-3.087-.343-4.116-2.229-5.316-7.888-.857-4.459-2.4-7.2-3.944-7.2C13.1-176,12.075-175.143,12.075-174.285Z" transform="translate(1309.449 223.907)" fill="#1f70ff"/>
    <path id="Path_9515" data-name="Path 9515" d="M152.293-174.285c0,1.029,1.886,2.744,4.287,3.773,5.83,2.572,5.487,4.287-2.229,10.975l-6.345,5.487,8.231,8.574,8.231,8.4-13.376,12.861c-14.919,14.576-27.609,25.38-29.667,25.38-.686,0-3.773,5.659-6.859,12.347A168.722,168.722,0,0,1,104.278-66.25c-7.2,11.489-9.775,38.412-6.859,71.337,1.2,13.376,1.715,25.208,1.029,26.066-.514,1.029-4.973,2.229-9.775,2.915l-8.746,1.2,1.029,6.516c.686,4.287.343,7.031-1.2,8.06-1.029,1.029-9.946,1.886-19.721,2.058-16.119.171-17.663,0-17.148-2.744.343-1.886,2.4-3.258,5.487-3.6,2.744-.343,7.888-2.4,11.318-4.63l6.345-3.944-.686-12.861A154.255,154.255,0,0,1,66.38-1.087c1.2-8.746,1.029-13.547-.171-16.462-1.372-3.087-1.372-5.145.171-8.06s1.543-5.145.343-8.746a30.747,30.747,0,0,1-1.886-9.432c0-4.287-.857-5.145-7.545-6.859C45.8-53.561,44.258-53.218,44.258-47.73c0,3.944-1.029,5.145-6,7.031-5.83,2.058-6.516,1.886-13.89-3.6C5.846-57.848,4.988-58.705,6.017-66.765a37.787,37.787,0,0,1,3.6-11.489c4.287-6.516,3.944-14.919-.343-16.119C.7-96.432-3.414-113.751,3.1-120.611c3.6-4.116,12-6.516,16.805-4.973,4.116,1.372,9.432,13.033,9.6,20.921.171,3.087.514,5.83.857,5.83.514,0,2.572-1.715,4.8-3.773,5.145-4.8,25.723-6.688,32.582-2.915,3.773,2.058,21.264-1.886,24.522-3.6,2.058-1.029,4.8-4.459,6-7.374,3.258-7.545,37.726-43.728,42.356-44.414,3.087-.343,4.116-2.229,5.316-7.888.857-4.459,2.4-7.2,3.944-7.2C151.264-176,152.293-175.143,152.293-174.285Z" transform="translate(1492.943 223.907)" fill="#1f70ff"/>
    <text id="TANGUN" transform="translate(1482.113 327.644)" fill="#1f70ff" font-size="75" font-family="Montserrat-SemiBold, Montserrat" font-weight="600" letter-spacing="0.009em"><tspan x="-170.419" y="0">TANGUN</tspan></text>
  </g>
</svg>
