<svg xmlns="http://www.w3.org/2000/svg" width="300.134" height="311.778" viewBox="0 0 300.134 311.778">
  <g id="logo_v3" transform="translate(132.752 316.602)">
    <path id="Path_9513" data-name="Path 9513" d="M10.4-174.521c0,.887-1.627,2.366-3.7,3.253-5.028,2.218-4.732,3.7,1.922,9.464l5.471,4.732L7-149.679l-7.1,7.246,11.534,11.09c12.865,12.569,23.807,21.885,25.582,21.885.591,0,3.253,4.88,5.915,10.647A145.488,145.488,0,0,0,51.8-81.363c6.211,9.907,8.429,33.123,5.915,61.514C56.682-8.315,56.239,1.888,56.83,2.627c.444.887,4.288,1.922,8.429,2.514L72.8,6.176,71.913,11.8c-.591,3.7-.3,6.063,1.035,6.95.887.887,8.576,1.627,17.005,1.774,13.9.148,15.231,0,14.787-2.366-.3-1.627-2.07-2.81-4.732-3.105a28.966,28.966,0,0,1-9.759-3.993l-5.471-3.4.591-11.09a133.015,133.015,0,0,0-.887-21.737c-1.035-7.541-.887-11.682.148-14.2,1.183-2.662,1.183-4.436-.148-6.95s-1.331-4.436-.3-7.541a26.513,26.513,0,0,0,1.627-8.133c0-3.7.739-4.436,6.506-5.915,9.907-2.514,11.238-2.218,11.238,2.514,0,3.4.887,4.436,5.175,6.063,5.028,1.774,5.619,1.627,11.978-3.105,15.97-11.682,16.709-12.421,15.822-19.371a32.584,32.584,0,0,0-3.105-9.907c-3.7-5.619-3.4-12.865.3-13.9,7.394-1.774,10.942-16.709,5.323-22.624-3.105-3.549-10.351-5.619-14.491-4.288-3.549,1.183-8.133,11.238-8.281,18.04-.148,2.662-.444,5.028-.739,5.028-.444,0-2.218-1.479-4.14-3.253-4.436-4.14-22.181-5.767-28.1-2.514-3.253,1.774-18.336-1.627-21.145-3.105-1.774-.887-4.14-3.845-5.175-6.358-2.81-6.506-32.532-37.707-36.524-38.3-2.662-.3-3.549-1.922-4.584-6.8-.739-3.845-2.07-6.211-3.4-6.211C11.286-176,10.4-175.261,10.4-174.521Z" transform="translate(-132.651 -84.093)" fill="#1f70ff"/>
    <path id="Path_9515" data-name="Path 9515" d="M131.309-174.521c0,.887,1.627,2.366,3.7,3.253,5.028,2.218,4.732,3.7-1.922,9.464l-5.471,4.732,7.1,7.394,7.1,7.246-11.534,11.09c-12.865,12.569-23.807,21.885-25.582,21.885-.591,0-3.253,4.88-5.915,10.647A145.49,145.49,0,0,1,89.9-81.363c-6.211,9.907-8.429,33.123-5.915,61.514,1.035,11.534,1.479,21.737.887,22.476-.444.887-4.288,1.922-8.429,2.514L68.907,6.176l.887,5.619c.591,3.7.3,6.063-1.035,6.95-.887.887-8.576,1.627-17.005,1.774-13.9.148-15.231,0-14.787-2.366.3-1.627,2.07-2.81,4.732-3.105a28.966,28.966,0,0,0,9.759-3.993l5.471-3.4-.591-11.09a133.014,133.014,0,0,1,.887-21.737c1.035-7.541.887-11.682-.148-14.2-1.183-2.662-1.183-4.436.148-6.95s1.331-4.436.3-7.541a26.513,26.513,0,0,1-1.627-8.133c0-3.7-.739-4.436-6.506-5.915C39.481-70.42,38.15-70.125,38.15-65.393c0,3.4-.887,4.436-5.175,6.063C27.947-57.556,27.356-57.7,21-62.436,5.027-74.117,4.288-74.857,5.175-81.807A32.584,32.584,0,0,1,8.28-91.714c3.7-5.619,3.4-12.865-.3-13.9-7.394-1.774-10.942-16.709-5.323-22.624,3.105-3.549,10.351-5.619,14.491-4.288,3.549,1.183,8.133,11.238,8.281,18.04.148,2.662.444,5.028.739,5.028.444,0,2.218-1.479,4.14-3.253,4.436-4.14,22.181-5.767,28.1-2.514,3.253,1.775,18.336-1.627,21.145-3.105,1.774-.887,4.14-3.845,5.175-6.358,2.81-6.506,32.531-37.707,36.524-38.3,2.662-.3,3.549-1.922,4.584-6.8.739-3.845,2.07-6.211,3.4-6.211C130.421-176,131.309-175.261,131.309-174.521Z" transform="translate(25.575 -84.093)" fill="#1f70ff"/>
    <text id="TANGUN" transform="translate(12.632 -20.824)" fill="#1f70ff" font-size="63" font-family="Montserrat-SemiBold, Montserrat" font-weight="600" letter-spacing="0.009em"><tspan x="-143.152" y="0">TANGUN</tspan></text>
    <path id="icon" d="M492.657,1534.321l-34.121-10.635v22.157c0,8.862,15.953,13.294,35.45,13.294s35.451-4.432,35.451-13.294v-22.157l-34.121,10.635Zm2.216-56.721H493.1l-67.8,21.271a2.946,2.946,0,0,0,0,5.761l15.51,4.875v15.51a8.578,8.578,0,0,0-4.431,7.533,8.051,8.051,0,0,1,0,8.863v23.043c0,4.874,17.725,4.874,17.725,0v-23.043a8.051,8.051,0,0,1,0-8.863,8.08,8.08,0,0,0-4.431-7.533v-12.851L493.1,1525.9h1.772l67.8-21.271a2.947,2.947,0,0,0,0-5.761l-67.8-21.27Zm-.886,28.36c-4.874,0-8.863-1.772-8.863-4.431s3.988-4.432,8.863-4.432,8.863,1.773,8.863,4.432S498.861,1505.961,493.987,1505.961Z" transform="translate(-476.567 -1794.203)" fill="#1f70ff"/>
  </g>
</svg>
