<svg xmlns="http://www.w3.org/2000/svg" width="178.743" height="667.065" viewBox="0 0 178.743 667.065">
  <g id="Group_2" data-name="Group 2" transform="translate(239.851 169.953)">
    <path id="Path_82" data-name="Path 82" d="M-207.3-103.388a30.356,30.356,0,0,0-3.807,1.8c-3.208,1.47-5.6,2.139-7.208,2q-3.205-.4-11.615-5.009-8.426-5.207-6.816-8.612,1.2-3.2,9.212-3.8,13.618-1,21.433-3.808a34.756,34.756,0,0,0,9.217-5.007,19.326,19.326,0,0,1,4.806-2.8,16.491,16.491,0,0,1,7.208-1,21.806,21.806,0,0,1,8.613,3.6,12.952,12.952,0,0,1,4.812,5.811,6.292,6.292,0,0,1-.406,5.807q-1.6,2.81-6.2,4.006l-8.214,1.6-14.822,3.205-.805.2A37.62,37.62,0,0,0-207.3-103.388Zm51.277-28.441a109.3,109.3,0,0,0-11.821-10.017,3.065,3.065,0,0,1-.8-3.8q1-2,4.407-3a21.44,21.44,0,0,1,9.617.2,59.151,59.151,0,0,1,15.024,6.209q6.408,3.6,8.013,7.411,1,2.208.4,6.41v45.668l18.223-1.2v-59.29q0-3.606-6-9.016-4.213-3.8-13.625-10.616-2.007-1.8-.4-3.8c1.2-1.468,3.2-2.47,6.01-3.005a28.941,28.941,0,0,1,11.415.8,58.519,58.519,0,0,1,16.626,7.612q6.012,4.008,7.608,7.811a14.644,14.644,0,0,1,.2,6.613l-.2,4V-45.7q-.2,29.846-3,44.867A70.419,70.419,0,0,1-100.538,17.2l-2.4,5.609q-3.6,8.211-4.605,7.411-1.208-.805.805-10.213a39.879,39.879,0,0,0,.2-7.013q-.21-2.606-1.4-9.614-2.207-14.017-3.2-25.04-1.618-19.828-1.612-44.465-6.21,2.4-10.01,1.4a13.882,13.882,0,0,1-5.612-3.607l-2.8-2.4q-.4,27.645-1.6,36.857a39.185,39.185,0,0,1-4.206,12.62l-2.2,4.206q-4.411,9.814-5.6,9.415-1.008-.4,0-8.013a18.635,18.635,0,0,0-.2-6.011q-.609-2-2.01-6.609t-2.2-7.009a46.81,46.81,0,0,1-1.2-8.013q-17.422,4.008-29.447,7.212a188.893,188.893,0,0,0-22.436,7.411q-7.809,6.01-12.22,4.605-5.611-1.8-8.613-14.823a16.693,16.693,0,0,1-.6-7.411,19.05,19.05,0,0,1,2-4.407,32.217,32.217,0,0,0,2.6-6.209,48.743,48.743,0,0,0,.6-12.216,6.735,6.735,0,0,0-1.6-1,11.553,11.553,0,0,0-2.4-1,40.3,40.3,0,0,1-6.61-3.4c-2.143-1.468-3.142-2.935-3.008-4.41a5.661,5.661,0,0,1,3.807-4.805q2-.8,8.014-1.2a73.837,73.837,0,0,0,11.215-1.6,29.31,29.31,0,0,0,11.813-5.608q6.621-4.4,12.22-3.205,5.212,1,10.823,7.413,5.6,6.21-1.2,9.814-4.2,2.206-20.228,5.208l-10.016,2.2a75.877,75.877,0,0,1,1.8,12.021,63.181,63.181,0,0,1-.2,11.214q3.394-1.2,11.415-3.205,4.8-1.2,16.22-3.8l25.439-6.01-.4-61.894Q-151.414-127.021-156.021-131.828Z" transform="translate(0.919 0)"/>
    <path id="Path_83" data-name="Path 83" d="M-168.321,114.414q.6,2.408-2,6.811l-1.8,3.208q-5.212,13.017-9.412,18.423a24.553,24.553,0,0,1-7.214,6.41q-2.2,1.206-3.409,2a22.85,22.85,0,0,0-3.8,3.409q-5.611,4.2-7.008,4.006-1.609-.4,2.8-7.415,2.606-5.6,4.805-18.829,1.809-10.413,3.2-24.032a100.282,100.282,0,0,0-13.418,3.606,61.8,61.8,0,0,0-7.008,3.2c-2.67,1.338-4.746,1.87-6.209,1.6q-2.606-.4-10.816-4.607-9.814-6.2-10.217-10.013-.4-3.6,7.016-4.207,6.408-.6,17.624-2.2,9.2-1.595,30.444-5.2a107.046,107.046,0,0,0,7.216-10.417q1.795-3.205,5.2-10.619l2.808-5.807c0-1.867-1.544-4.274-4.612-7.212q-5-4.6-7.409-3.005a29.037,29.037,0,0,0-6.815,4.609,51.529,51.529,0,0,0-3.808,4.406,13.849,13.849,0,0,1-4.406,4.006c-1.731.8-4.34.87-7.807.2q-14.427-4-17.027-9.216-3-5.605,9.818-10.013a58.158,58.158,0,0,0,11.415-4.609q3.205-1.6,8.006-4.605a57.141,57.141,0,0,1,7.216-4.006,21.169,21.169,0,0,1,8.813-1q4.611-.4,10.217,3.807a42.672,42.672,0,0,1,9.617,9.415,54.144,54.144,0,0,1,6.4,11.215q2.005,5.611.805,8.613a11.59,11.59,0,0,1-3.4,5.61,49.68,49.68,0,0,1-6.416,5.405q-3.8,3-5.8,4.812a34.922,34.922,0,0,0-5.212,6l21.033-4.605a10.961,10.961,0,0,1,6.609,2.2,9.807,9.807,0,0,1,3.608,5.212,5.909,5.909,0,0,1-1.605,5.4q-2.6,2.814-8.412,3.807l-28.64,5.212Q-169.525,110.8-168.321,114.414Zm9.412,44.868q7.816,5.212,8.414,12.819a20.507,20.507,0,0,1,.2,3.2q-.2,1.408-.6,4.412a35.366,35.366,0,0,0-.6,9.212q.6,5,4.406,6.61,10.613-2.608,20.035-5,6.2-1.609,15.414-4.207,6.012-1.807,10.224,1,3.995,2.406,3.8,7.615,0,7.408-11.214,12.62a110.623,110.623,0,0,1-19.03,5.8,33.011,33.011,0,0,1-14.423-1.8,35.44,35.44,0,0,1-13.418-8.819,38.826,38.826,0,0,1-4.406-6.41q-1.008-1.8-2.409-5a52.834,52.834,0,0,0-3.8-7.407,61.837,61.837,0,0,0-8.412-10.016q-9.415-8.009-10.617-12.821-1.607-6.01,8.813-7.216l1,.2A29.625,29.625,0,0,1-158.909,159.283ZM-118.241,37.7a101.222,101.222,0,0,0-10.623-9.614l-4.805-4q-2.807-2.2-1-4.207,1.8-2.2,6.808-2.407a37.2,37.2,0,0,1,13.019,1.8,73.99,73.99,0,0,1,17.832,8.414q5.2,3.205,6.4,6.209c.533,1.335.606,3.542.2,6.61l-.2,6.41-.2,34.85q0,36.659-4.406,55.887a73.805,73.805,0,0,1-8.414,21.831l-2.2,4.008q-5.212,8.416-6.018,7.407-.8-.6.805-9.212a35.615,35.615,0,0,0,1-9.816q-.208-2.995-1.2-9.212-.807-5.413-1.2-8.813a109.324,109.324,0,0,1-.6-11.613,47.227,47.227,0,0,0-7.813,2.8c-1.331.665-2.942,1.538-4.806,2.6a16.16,16.16,0,0,1-5.6,2.2q-2.616.2-8.214-1.8-14.635-7.608-14.023-12.22.4-3.6,9.211-3.6a106.716,106.716,0,0,0,14.823-2.4A110.882,110.882,0,0,0-113.436,105l-.2-57.483Q-113.636,42.71-118.241,37.7Z" transform="translate(0 60.379)"/>
    <path id="Path_84" data-name="Path 84" d="M-102.462,343.335a78.2,78.2,0,0,0,8.62-2.4,22.553,22.553,0,0,1,6.6-1.4,35.85,35.85,0,0,1,9.818,1.4q10.613,2.608,14.224,8.014,2.995,5-.2,10.617-2.007,4.8-5.411,5.4-2.208.411-9.618-1.4-4.6-1.009-7.608-1.6-5.01-.8-9.817-1.2a158.127,158.127,0,0,0-23.229-.4q-8.425.411-27.249,2l-1.2.2a292.2,292.2,0,0,0-32.249,4.007q-7.616,1.406-16.626,4.006-7.418,2-10.816,1.6-4.211-.411-14.222-5.412-8.618-4.6-12.613-8.612-3.814-3.606-3.808-6.209,0-2.406,3-3.608a15.977,15.977,0,0,1,7.008-.6q14.616,1.408,42.664,1.4,29.852-.2,51.876-2.2.2-3.6-3.2-11.222A55.105,55.105,0,0,0-147.928,319.1q-3.415-3.205-3.608-6.01c-.132-1.737.733-3.069,2.61-4.006,1.863-1.066,4.472-1.532,7.807-1.405a43.076,43.076,0,0,1,11.615,2.81q10.225,4.6,12.42,8.812,1.4,3.007,0,11.016-.8,4.2-1.2,6.609a65.463,65.463,0,0,0-.6,8.813l.2.2A132.918,132.918,0,0,0-102.462,343.335ZM-181.98,253.8c-.8-.4-2.343-1.2-4.605-2.4a50.557,50.557,0,0,1-9.618-5.811q-5.21-4-5.411-8.214.6-5.4,7.813-6.609,6.811-1,23.444,1.2a155.417,155.417,0,0,0,30.642-4.812,126.417,126.417,0,0,0,17.027-6,45.533,45.533,0,0,1,6.808-2.81,16.986,16.986,0,0,1,6.209-.8,18.615,18.615,0,0,1,13.02,5.811q6.408,6,1.8,12.618-3.8,4.2-11.415,5.8-5.012,1.21-18.637,2.2-10.2.807-16.22,1.4-10.413,1.2-20.027,3a34.576,34.576,0,0,1-.6,9.818q-.609,2.8-2.409,8.412a73.266,73.266,0,0,0-2.2,8.214,35.182,35.182,0,0,0-.6,10.016,152.855,152.855,0,0,0,28.242-2.608,100.381,100.381,0,0,0,15.626-4.806q4.6-1.807,6.8-2.4a35.122,35.122,0,0,1,7.414-1.206q7.608-1,13.219,6.817,5.811,8.007,0,14.217-2.4,1.607-8.213,2.6-3.594.411-13.618,1.406-10.821.807-17.426,1.6a221.821,221.821,0,0,0-22.03,3.407q-11.022,1.8-15.428-.406-2.807-1.6-6.808-9.211l-1.8-3.609c-1.464-2.935-2.135-5.4-2-7.407a19.269,19.269,0,0,1,1.2-5.612,33.043,33.043,0,0,0,2-7.407,54.085,54.085,0,0,0,.2-12.421l-.2-1.8A5.685,5.685,0,0,0-181.98,253.8Z" transform="translate(0.641 124.865)"/>
  </g>
</svg>
